# Blender v2.63 (sub 0) OBJ File: 'bossb_arm.blend'
# www.blender.org
o Sphere
v -0.382683 0.923880 0.000000
v -0.707107 0.707107 0.000000
v -0.923880 0.382683 0.000000
v -1.000000 -0.000000 0.000000
v -0.923880 -0.382684 0.000000
v -0.707107 -0.707107 0.000000
v -0.382683 -0.923880 0.000000
v -0.353553 0.923880 -0.146447
v -0.653281 0.707107 -0.270598
v -0.853553 0.382683 -0.353553
v -0.923880 -0.000000 -0.382683
v -0.853553 -0.382684 -0.353553
v -0.653281 -0.707107 -0.270598
v -0.353553 -0.923880 -0.146447
v -0.270598 0.923880 -0.270598
v -0.500000 0.707107 -0.500000
v -0.653282 0.382683 -0.653281
v -0.707107 -0.000000 -0.707107
v -0.653282 -0.382684 -0.653281
v -0.500000 -0.707107 -0.500000
v -0.270598 -0.923880 -0.270598
v -0.146447 0.923880 -0.353553
v -0.270598 0.707107 -0.653281
v -0.353553 0.382683 -0.853553
v -0.382683 -0.000000 -0.923879
v -0.353553 -0.382684 -0.853553
v -0.270598 -0.707107 -0.653281
v -0.146447 -0.923880 -0.353553
v -0.000000 0.923880 -0.382683
v -0.000000 0.707107 -0.707106
v -0.000000 0.382683 -0.923879
v -0.000000 -0.000000 -1.000000
v -0.000000 -0.382684 -0.923879
v -0.000000 -0.707107 -0.707106
v -0.000000 -0.923880 -0.382683
v -0.000000 1.000000 0.000000
v 0.146446 0.923880 -0.353553
v 0.270598 0.707107 -0.653281
v 0.353553 0.382683 -0.853553
v 0.382683 -0.000000 -0.923879
v 0.353553 -0.382684 -0.853553
v 0.270598 -0.707107 -0.653281
v 0.146446 -0.923880 -0.353553
v 0.270598 0.923880 -0.270598
v 0.500000 0.707107 -0.500000
v 0.653281 0.382683 -0.653281
v 0.707106 -0.000000 -0.707106
v 0.653281 -0.382684 -0.653281
v 0.500000 -0.707107 -0.500000
v 0.270598 -0.923880 -0.270598
v 0.353553 0.923880 -0.146446
v 0.653281 0.707107 -0.270598
v 0.853553 0.382683 -0.353553
v 0.923879 -0.000000 -0.382683
v 0.853553 -0.382684 -0.353553
v 0.653281 -0.707107 -0.270598
v 0.353553 -0.923880 -0.146446
v 0.382683 0.923880 0.000000
v 0.707106 0.707107 0.000000
v 0.923879 0.382683 0.000000
v 0.999999 -0.000000 0.000000
v 0.923879 -0.382684 0.000000
v 0.707106 -0.707107 0.000000
v 0.382683 -0.923880 0.000000
v 0.353553 0.923880 0.146447
v 0.653281 0.707107 0.270598
v 0.853553 0.382683 0.353553
v 0.923879 -0.000000 0.382683
v 0.853553 -0.382684 0.353553
v 0.653281 -0.707107 0.270598
v 0.353553 -0.923880 0.146447
v 0.270598 0.923880 0.270598
v 0.500000 0.707107 0.500000
v 0.653281 0.382683 0.653281
v 0.707106 -0.000000 0.707106
v 0.653281 -0.382684 0.653281
v 0.500000 -0.707107 0.500000
v 0.270598 -0.923880 0.270598
v 0.146446 0.923880 0.353553
v 0.270598 0.707107 0.653281
v 0.353553 0.382683 0.853553
v 0.382683 -0.000000 0.923879
v 0.353553 -0.382684 0.853553
v 0.270598 -0.707107 0.653281
v 0.146446 -0.923880 0.353553
v -0.000000 0.923880 0.382683
v -0.000000 0.707107 0.707106
v -0.000000 0.382683 0.923879
v -0.000000 -0.000000 0.999999
v -0.000000 -0.382684 0.923879
v -0.000000 -0.707107 0.707106
v -0.000000 -0.923880 0.382683
v -0.146447 0.923880 0.353553
v -0.270598 0.707107 0.653281
v -0.353553 0.382683 0.853553
v -0.382683 -0.000000 0.923879
v -0.353553 -0.382684 0.853553
v -0.270598 -0.707107 0.653281
v -0.146447 -0.923880 0.353553
v -0.000000 -1.000000 0.000000
v -0.270598 0.923880 0.270598
v -0.500000 0.707107 0.500000
v -0.653281 0.382683 0.653281
v -0.707107 -0.000000 0.707106
v -0.653281 -0.382684 0.653281
v -0.500000 -0.707107 0.500000
v -0.270598 -0.923880 0.270598
v -0.353553 0.923880 0.146446
v -0.653281 0.707107 0.270598
v -0.853553 0.382683 0.353553
v -0.923879 -0.000000 0.382683
v -0.853553 -0.382684 0.353553
v -0.653281 -0.707107 0.270598
v -0.353553 -0.923880 0.146446
vt 0.498163 0.513669
vt 0.542574 0.506889
vt 0.544063 0.539838
vt 0.507906 0.574552
vt 0.374454 0.735981
vt 0.400734 0.666744
vt 0.419586 0.746291
vt 0.388106 0.796863
vt 0.459399 0.546430
vt 0.476688 0.625977
vt 0.351604 0.830302
vt 0.345577 0.797352
vt 0.427879 0.600182
vt 0.448182 0.686284
vt 0.440114 0.478716
vt 0.493949 0.461844
vt 0.336078 0.769304
vt 0.356798 0.684155
vt 0.402968 0.526890
vt 0.377527 0.599030
vt 0.547735 0.478841
vt 0.408531 0.433145
vt 0.503674 0.426965
vt 0.324166 0.750428
vt 0.335304 0.649276
vt 0.366280 0.477564
vt 0.347612 0.553459
vt 0.561853 0.459965
vt 0.313928 0.416655
vt 0.581718 0.414344
vt 0.310965 0.743598
vt 0.311214 0.636655
vt 0.311998 0.459715
vt 0.311503 0.536969
vt 0.584279 0.453134
vt 0.214974 0.431755
vt 0.116441 0.425901
vt 0.297736 0.749853
vt 0.287062 0.648213
vt 0.257102 0.476060
vt 0.275223 0.552069
vt 0.058626 0.459389
vt 0.035966 0.453134
vt 0.033406 0.414344
vt 0.182228 0.476148
vt 0.127370 0.459878
vt 0.285742 0.768241
vt 0.265414 0.682189
vt 0.219683 0.524110
vt 0.244983 0.596462
vt 0.073173 0.477777
vt 0.162713 0.543074
vt 0.123496 0.511101
vt 0.276113 0.795962
vt 0.247579 0.733412
vt 0.194424 0.596550
vt 0.221519 0.663388
vt 0.078688 0.505499
vt 0.145430 0.622345
vt 0.113950 0.571772
vt 0.269907 0.828798
vt 0.233750 0.794084
vt 0.174026 0.682352
vt 0.202532 0.742659
vt 0.077448 0.538334
vt 0.126578 0.701892
vt 0.100298 0.632655
vt 0.268418 0.861747
vt 0.224007 0.854967
vt 0.153723 0.768454
vt 0.185243 0.822206
vt 0.071421 0.571283
vt 0.103371 0.769606
vt 0.082642 0.684481
vt 0.273579 0.889795
vt 0.219793 0.906792
vt 0.128811 0.841746
vt 0.165958 0.889920
vt 0.061922 0.599331
vt 0.073456 0.815176
vt 0.061148 0.719359
vt 0.287697 0.908671
vt 0.229518 0.941671
vt 0.092124 0.891072
vt 0.134375 0.935490
vt 0.050010 0.618207
vt 0.037347 0.831667
vt 0.037058 0.731981
vt 0.310122 0.915502
vt 0.307562 0.954292
vt 0.037842 0.908921
vt 0.039772 0.951981
vt 0.036809 0.625038
vt 0.549379 0.816566
vt 0.561218 0.720423
vt 0.585371 0.731981
vt 0.585659 0.831667
vt 0.332782 0.909247
vt 0.390597 0.942734
vt 0.531259 0.892576
vt 0.586154 0.908921
vt 0.489130 0.936880
vt 0.588084 0.951981
vt 0.571892 0.618783
vt 0.585122 0.625038
vt 0.519139 0.772174
vt 0.539570 0.686447
vt 0.347329 0.890859
vt 0.401526 0.908758
vt 0.493839 0.844526
vt 0.456384 0.892488
vt 0.559898 0.600395
vt 0.495675 0.705248
vt 0.521735 0.635224
vt 0.352844 0.863137
vt 0.397652 0.857535
vt 0.468580 0.772086
vt 0.436869 0.825562
vt 0.550269 0.572673
vt 0.584822 0.527120
vt 0.310666 0.841516
vt 0.036510 0.527120
vn -0.664113 -0.695151 -0.275094
vn -0.372387 -0.915159 -0.154241
vn -0.403088 -0.915159 0.000000
vn -0.718833 -0.695151 0.000000
vn -0.664113 0.695151 -0.275094
vn -0.856685 0.374340 -0.354839
vn -0.927274 0.374340 0.000000
vn -0.718833 0.695151 0.000000
vn -0.856685 -0.374340 -0.354839
vn -0.927274 -0.374340 0.000000
vn -0.403088 0.915159 0.000000
vn -0.372387 0.915159 -0.154241
vn -0.923856 0.000000 -0.382672
vn -1.000000 0.000000 0.000000
vn -0.655660 -0.374340 -0.655660
vn -0.508286 -0.695151 -0.508286
vn -0.285012 0.915159 -0.285012
vn -0.508286 0.695151 -0.508286
vn -0.707083 0.000000 -0.707083
vn -0.655660 0.374340 -0.655660
vn -0.285012 -0.915159 -0.285012
vn -0.354839 -0.374340 -0.856685
vn -0.275094 -0.695151 -0.664113
vn -0.154241 0.915159 -0.372387
vn -0.275094 0.695151 -0.664113
vn -0.382672 0.000000 -0.923856
vn -0.354839 0.374340 -0.856685
vn -0.154241 -0.915159 -0.372387
vn 0.000000 -0.374340 -0.927274
vn 0.000000 -0.695151 -0.718833
vn 0.000000 0.915159 -0.403088
vn 0.000000 0.695151 -0.718833
vn 0.000000 0.000000 -1.000000
vn 0.000000 0.374340 -0.927274
vn 0.000000 -0.915159 -0.403088
vn 0.354839 -0.374340 -0.856685
vn 0.275094 -0.695151 -0.664113
vn 0.154241 0.915159 -0.372387
vn 0.275094 0.695151 -0.664113
vn 0.382672 0.000000 -0.923856
vn 0.354839 0.374340 -0.856685
vn 0.154241 -0.915159 -0.372387
vn 0.655660 -0.374340 -0.655660
vn 0.508286 -0.695151 -0.508286
vn 0.285012 0.915159 -0.285012
vn 0.508286 0.695151 -0.508286
vn 0.707083 0.000000 -0.707083
vn 0.655660 0.374340 -0.655660
vn 0.285012 -0.915159 -0.285012
vn 0.856685 -0.374340 -0.354839
vn 0.664113 -0.695151 -0.275094
vn 0.372387 0.915159 -0.154241
vn 0.664113 0.695151 -0.275094
vn 0.923856 0.000000 -0.382672
vn 0.856685 0.374340 -0.354839
vn 0.372387 -0.915159 -0.154241
vn 0.927274 -0.374340 0.000000
vn 0.718833 -0.695151 0.000000
vn 0.403088 0.915159 0.000000
vn 0.718833 0.695151 0.000000
vn 1.000000 0.000000 0.000000
vn 0.927274 0.374340 0.000000
vn 0.403088 -0.915159 0.000000
vn 0.856685 -0.374340 0.354839
vn 0.664113 -0.695151 0.275094
vn 0.372387 0.915159 0.154241
vn 0.664113 0.695151 0.275094
vn 0.923856 0.000000 0.382672
vn 0.856685 0.374340 0.354839
vn 0.372387 -0.915159 0.154241
vn 0.655660 -0.374340 0.655660
vn 0.508286 -0.695151 0.508286
vn 0.285012 0.915159 0.285012
vn 0.508286 0.695151 0.508286
vn 0.707083 0.000000 0.707083
vn 0.655660 0.374340 0.655660
vn 0.285012 -0.915159 0.285012
vn 0.354839 -0.374340 0.856685
vn 0.275094 -0.695151 0.664113
vn 0.154241 0.915159 0.372387
vn 0.275094 0.695151 0.664113
vn 0.382672 0.000000 0.923856
vn 0.354839 0.374340 0.856685
vn 0.154241 -0.915159 0.372387
vn 0.000000 -0.374340 0.927274
vn 0.000000 -0.695151 0.718833
vn 0.000000 0.915159 0.403088
vn 0.000000 0.695151 0.718833
vn 0.000000 0.000000 1.000000
vn 0.000000 0.374340 0.927274
vn 0.000000 -0.915159 0.403088
vn -0.354839 -0.374340 0.856685
vn -0.275094 -0.695151 0.664113
vn -0.154241 0.915159 0.372387
vn -0.275094 0.695151 0.664113
vn -0.382672 0.000000 0.923856
vn -0.354839 0.374340 0.856685
vn -0.154241 -0.915159 0.372387
vn -0.655660 -0.374340 0.655660
vn -0.508286 -0.695151 0.508286
vn -0.285012 0.915159 0.285012
vn -0.508286 0.695151 0.508286
vn -0.707083 0.000000 0.707083
vn -0.655660 0.374340 0.655660
vn -0.285012 -0.915159 0.285012
vn -0.856685 -0.374340 0.354839
vn -0.664113 -0.695151 0.275094
vn -0.372387 0.915159 0.154241
vn -0.664113 0.695151 0.275094
vn -0.923856 0.000000 0.382672
vn -0.856685 0.374340 0.354839
vn -0.372387 -0.915159 0.154241
vn 0.000000 -0.999969 0.000000
vn 0.000000 1.000000 0.000000
s 1
f 13/1/1 14/2/2 7/3/3
f 13/1/1 7/3/3 6/4/4
f 9/5/5 10/6/6 3/7/7
f 9/5/5 3/7/7 2/8/8
f 12/9/9 13/1/1 6/4/4
f 12/9/9 6/4/4 5/10/10
f 2/8/8 1/11/11 8/12/12
f 2/8/8 8/12/12 9/5/5
f 11/13/13 12/9/9 5/10/10
f 11/13/13 5/10/10 4/14/14
f 10/6/6 11/13/13 4/14/14
f 10/6/6 4/14/14 3/7/7
f 19/15/15 20/16/16 13/1/1
f 19/15/15 13/1/1 12/9/9
f 15/17/17 16/18/18 9/5/5
f 15/17/17 9/5/5 8/12/12
f 18/19/19 19/15/15 12/9/9
f 18/19/19 12/9/9 11/13/13
f 17/20/20 18/19/19 11/13/13
f 17/20/20 11/13/13 10/6/6
f 20/16/16 21/21/21 14/2/2
f 20/16/16 14/2/2 13/1/1
f 16/18/18 17/20/20 10/6/6
f 16/18/18 10/6/6 9/5/5
f 26/22/22 27/23/23 20/16/16
f 26/22/22 20/16/16 19/15/15
f 22/24/24 23/25/25 16/18/18
f 22/24/24 16/18/18 15/17/17
f 25/26/26 26/22/22 19/15/15
f 25/26/26 19/15/15 18/19/19
f 24/27/27 25/26/26 18/19/19
f 24/27/27 18/19/19 17/20/20
f 27/23/23 28/28/28 21/21/21
f 27/23/23 21/21/21 20/16/16
f 23/25/25 24/27/27 17/20/20
f 23/25/25 17/20/20 16/18/18
f 33/29/29 34/30/30 27/23/23
f 33/29/29 27/23/23 26/22/22
f 29/31/31 30/32/32 23/25/25
f 29/31/31 23/25/25 22/24/24
f 32/33/33 33/29/29 26/22/22
f 32/33/33 26/22/22 25/26/26
f 31/34/34 32/33/33 25/26/26
f 31/34/34 25/26/26 24/27/27
f 34/30/30 35/35/35 28/28/28
f 34/30/30 28/28/28 27/23/23
f 30/32/32 31/34/34 24/27/27
f 30/32/32 24/27/27 23/25/25
f 41/36/36 42/37/37 34/30/30
f 41/36/36 34/30/30 33/29/29
f 37/38/38 38/39/39 30/32/32
f 37/38/38 30/32/32 29/31/31
f 40/40/40 41/36/36 33/29/29
f 40/40/40 33/29/29 32/33/33
f 39/41/41 40/40/40 32/33/33
f 39/41/41 32/33/33 31/34/34
f 42/37/37 43/42/42 35/43/35
f 42/37/37 35/43/35 34/44/30
f 38/39/39 39/41/41 31/34/34
f 38/39/39 31/34/34 30/32/32
f 48/45/43 49/46/44 42/37/37
f 48/45/43 42/37/37 41/36/36
f 44/47/45 45/48/46 38/39/39
f 44/47/45 38/39/39 37/38/38
f 47/49/47 48/45/43 41/36/36
f 47/49/47 41/36/36 40/40/40
f 46/50/48 47/49/47 40/40/40
f 46/50/48 40/40/40 39/41/41
f 49/46/44 50/51/49 43/42/42
f 49/46/44 43/42/42 42/37/37
f 45/48/46 46/50/48 39/41/41
f 45/48/46 39/41/41 38/39/39
f 55/52/50 56/53/51 49/46/44
f 55/52/50 49/46/44 48/45/43
f 51/54/52 52/55/53 45/48/46
f 51/54/52 45/48/46 44/47/45
f 54/56/54 55/52/50 48/45/43
f 54/56/54 48/45/43 47/49/47
f 53/57/55 54/56/54 47/49/47
f 53/57/55 47/49/47 46/50/48
f 56/53/51 57/58/56 50/51/49
f 56/53/51 50/51/49 49/46/44
f 52/55/53 53/57/55 46/50/48
f 52/55/53 46/50/48 45/48/46
f 62/59/57 63/60/58 56/53/51
f 62/59/57 56/53/51 55/52/50
f 58/61/59 59/62/60 52/55/53
f 58/61/59 52/55/53 51/54/52
f 61/63/61 62/59/57 55/52/50
f 61/63/61 55/52/50 54/56/54
f 60/64/62 61/63/61 54/56/54
f 60/64/62 54/56/54 53/57/55
f 63/60/58 64/65/63 57/58/56
f 63/60/58 57/58/56 56/53/51
f 59/62/60 60/64/62 53/57/55
f 59/62/60 53/57/55 52/55/53
f 69/66/64 70/67/65 63/60/58
f 69/66/64 63/60/58 62/59/57
f 65/68/66 66/69/67 59/62/60
f 65/68/66 59/62/60 58/61/59
f 68/70/68 69/66/64 62/59/57
f 68/70/68 62/59/57 61/63/61
f 67/71/69 68/70/68 61/63/61
f 67/71/69 61/63/61 60/64/62
f 70/67/65 71/72/70 64/65/63
f 70/67/65 64/65/63 63/60/58
f 66/69/67 67/71/69 60/64/62
f 66/69/67 60/64/62 59/62/60
f 76/73/71 77/74/72 70/67/65
f 76/73/71 70/67/65 69/66/64
f 72/75/73 73/76/74 66/69/67
f 72/75/73 66/69/67 65/68/66
f 75/77/75 76/73/71 69/66/64
f 75/77/75 69/66/64 68/70/68
f 74/78/76 75/77/75 68/70/68
f 74/78/76 68/70/68 67/71/69
f 77/74/72 78/79/77 71/72/70
f 77/74/72 71/72/70 70/67/65
f 73/76/74 74/78/76 67/71/69
f 73/76/74 67/71/69 66/69/67
f 83/80/78 84/81/79 77/74/72
f 83/80/78 77/74/72 76/73/71
f 79/82/80 80/83/81 73/76/74
f 79/82/80 73/76/74 72/75/73
f 82/84/82 83/80/78 76/73/71
f 82/84/82 76/73/71 75/77/75
f 81/85/83 82/84/82 75/77/75
f 81/85/83 75/77/75 74/78/76
f 84/81/79 85/86/84 78/79/77
f 84/81/79 78/79/77 77/74/72
f 80/83/81 81/85/83 74/78/76
f 80/83/81 74/78/76 73/76/74
f 90/87/85 91/88/86 84/81/79
f 90/87/85 84/81/79 83/80/78
f 86/89/87 87/90/88 80/83/81
f 86/89/87 80/83/81 79/82/80
f 89/91/89 90/87/85 83/80/78
f 89/91/89 83/80/78 82/84/82
f 88/92/90 89/91/89 82/84/82
f 88/92/90 82/84/82 81/85/83
f 91/88/86 92/93/91 85/86/84
f 91/88/86 85/86/84 84/81/79
f 87/90/88 88/92/90 81/85/83
f 87/90/88 81/85/83 80/83/81
f 97/94/92 98/95/93 91/96/86
f 97/94/92 91/96/86 90/97/85
f 93/98/94 94/99/95 87/90/88
f 93/98/94 87/90/88 86/89/87
f 96/100/96 97/94/92 90/97/85
f 96/100/96 90/97/85 89/101/89
f 95/102/97 96/100/96 89/101/89
f 95/102/97 89/101/89 88/103/90
f 98/95/93 99/104/98 92/105/91
f 98/95/93 92/105/91 91/96/86
f 94/99/95 95/102/97 88/103/90
f 94/99/95 88/103/90 87/90/88
f 105/106/99 106/107/100 98/95/93
f 105/106/99 98/95/93 97/94/92
f 101/108/101 102/109/102 94/99/95
f 101/108/101 94/99/95 93/98/94
f 104/110/103 105/106/99 97/94/92
f 104/110/103 97/94/92 96/100/96
f 103/111/104 104/110/103 96/100/96
f 103/111/104 96/100/96 95/102/97
f 106/107/100 107/112/105 99/104/98
f 106/107/100 99/104/98 98/95/93
f 102/109/102 103/111/104 95/102/97
f 102/109/102 95/102/97 94/99/95
f 112/113/106 113/114/107 106/107/100
f 112/113/106 106/107/100 105/106/99
f 108/115/108 109/116/109 102/109/102
f 108/115/108 102/109/102 101/108/101
f 111/117/110 112/113/106 105/106/99
f 111/117/110 105/106/99 104/110/103
f 110/118/111 111/117/110 104/110/103
f 110/118/111 104/110/103 103/111/104
f 113/114/107 114/119/112 107/112/105
f 113/114/107 107/112/105 106/107/100
f 109/116/109 110/118/111 103/111/104
f 109/116/109 103/111/104 102/109/102
f 14/2/2 100/120/113 7/3/3
f 8/12/12 1/11/11 36/121/114
f 21/21/21 100/120/113 14/2/2
f 36/121/114 15/17/17 8/12/12
f 28/28/28 100/120/113 21/21/21
f 36/121/114 22/24/24 15/17/17
f 35/35/35 100/120/113 28/28/28
f 36/121/114 29/31/31 22/24/24
f 43/42/42 100/122/113 35/43/35
f 36/121/114 37/38/38 29/31/31
f 50/51/49 100/122/113 43/42/42
f 36/121/114 44/47/45 37/38/38
f 57/58/56 100/122/113 50/51/49
f 36/121/114 51/54/52 44/47/45
f 64/65/63 100/122/113 57/58/56
f 36/121/114 58/61/59 51/54/52
f 71/72/70 100/122/113 64/65/63
f 36/121/114 65/68/66 58/61/59
f 78/79/77 100/122/113 71/72/70
f 36/121/114 72/75/73 65/68/66
f 85/86/84 100/122/113 78/79/77
f 36/121/114 79/82/80 72/75/73
f 92/93/91 100/122/113 85/86/84
f 36/121/114 86/89/87 79/82/80
f 99/104/98 100/120/113 92/105/91
f 36/121/114 93/98/94 86/89/87
f 107/112/105 100/120/113 99/104/98
f 36/121/114 101/108/101 93/98/94
f 114/119/112 100/120/113 107/112/105
f 36/121/114 108/115/108 101/108/101
f 5/10/10 6/4/4 113/114/107
f 5/10/10 113/114/107 112/113/106
f 1/11/11 2/8/8 109/116/109
f 1/11/11 109/116/109 108/115/108
f 4/14/14 5/10/10 112/113/106
f 4/14/14 112/113/106 111/117/110
f 7/3/3 100/120/113 114/119/112
f 36/121/114 1/11/11 108/115/108
f 3/7/7 4/14/14 111/117/110
f 3/7/7 111/117/110 110/118/111
f 6/4/4 7/3/3 114/119/112
f 6/4/4 114/119/112 113/114/107
f 2/8/8 3/7/7 110/118/111
f 2/8/8 110/118/111 109/116/109
