# Blender v2.63 (sub 0) OBJ File: 'drakol.blend'
# www.blender.org
o Cube
v -0.838890 -0.839413 -1.417906
v -0.686794 -0.766319 -2.325932
v -0.668339 1.062753 -1.417906
v -0.554321 0.912166 -2.325932
v -1.248403 -0.409645 -1.417906
v -1.107411 -0.359795 -2.325932
v -1.248403 0.357613 -1.417906
v -1.107411 0.297963 -2.325932
v -0.531221 -0.519951 -3.762674
v -0.399214 0.588172 -3.762674
v -0.962720 -0.267350 -3.521273
v -0.962720 0.231068 -3.521273
v -0.838890 -0.967175 0.341252
v -0.744978 1.062753 0.341252
v -1.386058 -0.415556 0.341252
v -1.469429 0.494794 0.341252
v -3.306839 -0.021342 0.680121
v -3.306839 0.285325 0.680121
v -3.306839 -0.021342 1.238052
v -3.306839 0.285325 1.238052
v -1.497831 0.782726 1.286467
v -1.497831 -0.305632 1.286467
v -0.774976 0.953130 1.286467
v -0.774976 -0.922328 1.286467
v -0.260261 -0.146236 -4.917214
v -0.332618 0.208180 -4.917214
v -0.712322 -0.052869 -4.612090
v -0.712322 0.120505 -4.612090
v -1.015224 0.560359 2.807155
v -1.041500 -0.259171 2.887047
v -0.473134 0.604072 3.455737
v -0.473134 -0.509021 3.455737
v -2.550118 0.544129 1.747752
v -2.539196 -0.234141 1.725747
v -2.030872 0.427660 3.059107
v -2.030872 -0.040808 3.059107
v -1.935290 2.280852 4.603959
v -1.989548 2.269889 4.527297
v -2.010991 2.368396 4.059909
v -2.192282 2.325658 4.059909
v -3.464233 0.053145 3.866627
v -3.464233 0.262259 3.866627
v -3.766034 -0.061641 3.082169
v -3.702334 0.331410 2.947722
v -4.545359 0.185443 4.805451
v -4.545359 0.254291 4.805451
v -4.467229 0.112265 4.128068
v -4.426619 0.298376 4.042355
v -2.448528 -0.110437 -1.612127
v -2.448528 0.106402 -1.612127
v -2.374557 -0.057531 -2.145596
v -2.374557 0.143431 -2.145596
v 0.838890 -0.839413 -1.417906
v 0.686794 -0.766319 -2.325932
v 0.000000 -0.966843 -2.325932
v 0.000000 -1.107232 -1.417906
v 0.668339 1.062753 -1.417906
v 0.554321 0.912166 -2.325932
v 0.000000 1.134131 -2.325932
v 0.000000 1.297593 -1.417906
v 1.248403 -0.409645 -1.417906
v 1.107411 -0.359795 -2.325932
v 1.248403 0.357613 -1.417906
v 1.107411 0.297963 -2.325932
v 0.531221 -0.519951 -3.762674
v 0.000000 -0.590173 -3.762674
v 0.399214 0.588172 -3.762674
v 0.000000 0.680349 -3.762674
v 0.962720 -0.267350 -3.521273
v 0.962720 0.231068 -3.521273
v 0.838890 -0.967175 0.341252
v 0.000000 -1.230037 0.341252
v 0.744978 1.062753 0.341252
v 0.000000 1.297593 0.341252
v 1.386058 -0.415556 0.341252
v 1.469429 0.494794 0.341252
v 3.306839 -0.021342 0.680121
v 3.306839 0.285325 0.680121
v 3.306839 -0.021342 1.238052
v 3.306839 0.285325 1.238052
v 1.497831 0.782726 1.286467
v 1.497831 -0.305632 1.286467
v 0.000000 1.086128 1.286467
v 0.774976 0.953130 1.286467
v 0.000000 -1.097907 1.286467
v 0.774976 -0.922328 1.286467
v 0.260261 -0.146236 -4.917214
v 0.000000 -0.178863 -4.985906
v 0.332618 0.208180 -4.917214
v 0.000000 0.208179 -4.985906
v 0.712322 -0.052869 -4.612090
v 0.712322 0.120505 -4.612090
v 1.015224 0.560359 2.807155
v 1.041500 -0.259171 2.887047
v 0.000000 0.673843 3.668053
v 0.473134 0.604072 3.455737
v 0.000000 -0.587026 3.668053
v 0.473134 -0.509021 3.455737
v 2.550118 0.544129 1.747752
v 2.539196 -0.234141 1.725747
v 2.030872 0.427660 3.059107
v 2.030872 -0.040808 3.059107
v 1.935290 2.280852 4.603959
v 1.989548 2.269889 4.527297
v 2.010991 2.368396 4.059909
v 2.192282 2.325658 4.059909
v 3.464233 0.053145 3.866627
v 3.464233 0.262259 3.866627
v 3.766034 -0.061641 3.082169
v 3.702334 0.331410 2.947722
v 4.545359 0.185443 4.805451
v 4.545359 0.254291 4.805451
v 4.467229 0.112265 4.128068
v 4.426619 0.298376 4.042355
v 2.448528 -0.110437 -1.612127
v 2.448528 0.106402 -1.612127
v 2.374557 -0.057531 -2.145596
v 2.374557 0.143431 -2.145596
vt 0.282820 0.211501
vt 0.116982 0.181419
vt 0.130357 0.073746
vt 0.295526 0.105529
vt 0.663963 0.321879
vt 0.662442 0.324897
vt 0.669078 0.258665
vt 0.677350 0.319288
vt 0.524712 0.098578
vt 0.523419 0.189644
vt 0.256471 0.199156
vt 0.256018 0.081592
vt 0.278025 0.341645
vt 0.109843 0.343590
vt 1.115642 0.641319
vt 1.511932 0.677790
vt 1.507620 0.934505
vt 1.107852 0.949203
vt 0.116513 0.238648
vt 0.331137 0.236645
vt 0.332983 0.344743
vt 0.116059 0.345576
vt 0.348465 0.961366
vt 0.357058 0.624563
vt 0.371995 0.220233
vt 0.543920 0.233660
vt 0.537845 0.387223
vt 0.366648 0.389922
vt 0.513631 0.139821
vt 0.549370 0.235005
vt 0.068905 0.559764
vt 0.265678 0.426393
vt 0.802606 0.485300
vt 0.614636 0.769511
vt 0.656649 0.855036
vt 0.633222 0.768348
vt 0.875387 0.715099
vt 0.930172 0.747049
vt 0.549370 0.332590
vt 0.166698 0.458495
vt 0.188854 0.394751
vt 0.438951 0.323384
vt 0.438161 0.411510
vt 1.122555 0.559116
vt 1.112564 0.734716
vt 0.667890 0.346036
vt 0.626902 0.351795
vt 0.646041 0.353504
vt 0.642857 0.351088
vt 0.056971 0.389922
vt 0.065566 0.218974
vt 0.524713 0.325698
vt 0.255478 0.332127
vt 0.672438 0.300929
vt 0.670074 0.304152
vt 0.666754 0.308010
vt 0.667103 0.298104
vt 0.639944 0.356376
vt 0.670361 0.236999
vt 0.649844 0.356887
vt 0.614141 0.237387
vt 0.110383 0.324403
vt 0.113116 0.203461
vt 0.419757 0.022888
vt 0.426316 0.098355
vt 0.245170 0.080519
vt 0.240317 0.023502
vt 0.112015 0.058895
vt 0.155433 0.249047
vt 0.224570 0.154076
vt 0.443155 0.075424
vt 0.463470 0.206428
vt -0.061717 0.980492
vt -0.060375 0.641345
vt 0.243916 0.178364
vt 0.422703 0.177217
vt 0.877025 0.637918
vt 0.965921 0.617058
vt 0.775876 0.675187
vt 0.779574 0.658823
vt 0.577951 0.697913
vt 0.547542 0.953509
vt -0.025262 0.691813
vt 0.580737 0.636062
vt 0.232818 0.129771
vt 0.441821 0.064823
vt 0.441821 0.354168
vt 0.222048 0.343653
vt 0.576626 0.372305
vt 0.576626 0.044546
vt -1.012344 0.873881
vt -1.102565 0.667005
vt 0.287388 0.245304
vt 0.298475 0.290402
vt 0.239992 0.297808
vt 0.242598 0.304359
vt 0.468595 0.317177
vt 0.128752 0.317177
vt 0.697950 0.213463
vt 0.676618 0.205234
vt 0.683344 0.211408
vt 0.693100 0.211208
vt 0.241488 0.301214
vt 0.226343 0.284952
vt 0.665819 0.184907
vt 0.662034 0.197326
vt 0.654991 0.191516
vt 0.649087 0.161383
vt 0.649893 0.203975
vt 0.647219 0.189996
vt 0.661813 0.159449
vt 0.654993 0.205588
vt 0.669194 0.169389
vt 0.665004 0.172087
vt 0.646889 0.149610
vt 0.684277 0.139081
vt 0.242575 0.298153
vt 0.248543 0.304916
vt 0.225545 0.296576
vt 0.224006 0.292708
vt 0.225531 0.292912
vt 0.224889 0.294719
vt 0.680215 0.247279
vt 0.693014 0.248995
vt 0.665868 0.208795
vt 0.671188 0.204687
vt 0.670033 0.217820
vt 0.660808 0.233312
vt 0.654946 0.362951
vt 0.646906 0.294559
vt 0.644526 0.229450
vt 0.654674 0.241459
vt 0.667202 0.273934
vt 0.674143 0.342446
vt 0.666634 0.329478
vt 0.672397 0.265340
vt 0.671641 0.355777
vt 0.677639 0.369510
vt 0.667596 0.278436
vt 0.657989 0.342112
vt 0.652221 0.304921
vt 0.652322 0.300654
vt 0.655105 0.302571
vt 0.653370 0.303650
vt 0.665268 0.323452
vt 0.650034 0.324282
vt 0.638960 0.261419
vt 0.666684 0.324417
vn -0.467544 -0.866482 -0.174871
vn -0.526719 -0.843196 -0.107334
vn -0.830409 -0.488052 -0.268685
vn -0.634236 -0.772057 0.040284
vn -0.498184 -0.529527 0.686575
vn -0.761895 -0.525010 -0.379192
vn -0.761162 -0.533189 -0.369213
vn -0.503983 -0.863674 0.004608
vn -0.619556 -0.763634 0.181616
vn 0.000000 -0.983367 -0.181524
vn 0.000000 -0.994385 -0.105777
vn 0.000000 0.995148 -0.098117
vn 0.000000 0.972442 -0.233039
vn -0.527757 0.823664 -0.207343
vn -0.540269 0.833552 -0.115177
vn -0.831874 0.467116 -0.299539
vn -0.624165 0.778191 0.069185
vn -0.435255 0.900266 -0.005402
vn 0.000000 0.996948 0.077761
vn -0.381787 -0.882168 -0.275613
vn -0.435438 0.502731 -0.746727
vn -0.795099 0.367840 -0.482162
vn -0.775597 0.518387 -0.360057
vn -0.410993 0.870937 -0.269234
vn 0.000000 -0.961272 -0.275491
vn -0.380413 -0.538682 -0.751701
vn 0.000000 -0.576159 -0.817316
vn 0.000000 0.951262 -0.308359
vn -0.574480 0.803552 0.155675
vn -0.473830 0.554094 0.684408
vn -0.483352 -0.492752 0.723533
vn 0.000000 -0.999878 0.015595
vn -0.747795 0.582049 -0.319346
vn -0.780755 -0.551683 -0.293252
vn 0.000000 -0.987548 0.157201
vn -0.456710 -0.877834 0.144230
vn -0.751549 -0.636677 -0.172552
vn -0.660695 0.660695 -0.356212
vn -0.548967 -0.537065 0.640431
vn -0.514695 -0.593188 0.619007
vn -0.167882 0.984252 -0.055055
vn 0.000000 0.985351 0.170385
vn 0.000000 0.530564 -0.847621
vn -0.772942 -0.388775 -0.501328
vn -0.352062 0.466872 0.811182
vn -0.658986 -0.117100 0.742943
vn 0.000000 0.602313 0.798242
vn 0.000000 -0.592975 0.805200
vn -0.929044 0.367382 -0.043489
vn 0.195502 0.972777 -0.124210
vn 0.155553 0.705313 0.691580
vn 0.194525 -0.674398 0.712272
vn 0.135777 0.345073 0.928678
vn -0.504318 0.663686 -0.552385
vn -0.474441 -0.687002 -0.550371
vn -0.833338 0.140263 0.534623
vn 0.388958 0.693564 0.606342
vn 0.363659 -0.692251 0.623280
vn -0.579424 -0.736503 -0.348979
vn -0.612995 0.668752 -0.420667
vn -0.420881 -0.395917 0.816126
vn -0.756310 -0.636494 -0.151067
vn -0.369945 0.609882 0.700827
vn -0.669912 0.686697 -0.282174
vn -0.715995 0.601947 -0.353496
vn -0.519974 0.513138 0.682821
vn 0.467544 -0.866482 -0.174871
vn 0.634236 -0.772057 0.040284
vn 0.830409 -0.488052 -0.268685
vn 0.526719 -0.843196 -0.107334
vn 0.498184 -0.529527 0.686575
vn 0.761162 -0.533189 -0.369213
vn 0.761895 -0.525010 -0.379192
vn 0.503983 -0.863674 0.004608
vn 0.619556 -0.763634 0.181616
vn 0.540269 0.833552 -0.115177
vn 0.527757 0.823664 -0.207343
vn 0.831874 0.467116 -0.299539
vn 0.624165 0.778191 0.069185
vn 0.435255 0.900266 -0.005402
vn 0.381787 -0.882168 -0.275613
vn 0.435438 0.502731 -0.746727
vn 0.410993 0.870937 -0.269234
vn 0.775597 0.518387 -0.360057
vn 0.795099 0.367840 -0.482162
vn 0.380413 -0.538682 -0.751701
vn 0.483352 -0.492752 0.723533
vn 0.473830 0.554094 0.684408
vn 0.574480 0.803552 0.155675
vn 0.780755 -0.551683 -0.293252
vn 0.747795 0.582049 -0.319346
vn 0.456710 -0.877834 0.144230
vn 0.751549 -0.636677 -0.172552
vn 0.660695 0.660695 -0.356212
vn 0.548967 -0.537065 0.640431
vn 0.514695 -0.593188 0.619007
vn 0.167882 0.984252 -0.055055
vn 0.772942 -0.388775 -0.501328
vn 0.658986 -0.117100 0.742943
vn 0.352062 0.466872 0.811182
vn -0.195502 0.972777 -0.124210
vn 0.929044 0.367382 -0.043489
vn -0.194525 -0.674398 0.712272
vn -0.155553 0.705313 0.691580
vn -0.135777 0.345073 0.928678
vn 0.504318 0.663686 -0.552385
vn 0.474441 -0.687002 -0.550371
vn 0.833338 0.140263 0.534623
vn -0.363659 -0.692251 0.623280
vn -0.388958 0.693564 0.606342
vn 0.579424 -0.736503 -0.348979
vn 0.612995 0.668752 -0.420667
vn 0.420881 -0.395917 0.816126
vn 0.756310 -0.636494 -0.151067
vn 0.669912 0.686697 -0.282174
vn 0.369945 0.609882 0.700827
vn 0.715995 0.601947 -0.353496
vn 0.519974 0.513138 0.682821
s 1
f 2/1/1 1/2/2 5/3/3
f 2/1/1 5/3/3 6/4/4
f 49/5/5 51/6/6 11/7/7
f 49/5/5 11/7/7 6/8/4
f 5/9/3 1/10/2 13/11/8
f 5/9/3 13/11/8 15/12/9
f 1/2/2 2/1/1 55/13/10
f 1/2/2 55/13/10 56/14/11
f 60/15/12 59/16/13 4/17/14
f 60/15/12 4/17/14 3/18/15
f 7/19/16 8/20/17 6/21/4
f 7/19/16 6/21/4 5/22/3
f 60/15/12 3/18/15 14/23/18
f 60/15/12 14/23/18 74/24/19
f 3/25/15 4/26/14 8/27/17
f 3/25/15 8/27/17 7/28/16
f 11/29/7 9/30/20 2/1/1
f 11/29/7 2/1/1 6/4/4
f 26/31/21 28/32/22 12/33/23
f 26/31/21 12/33/23 10/34/24
f 66/35/25 9/36/20 25/37/26
f 66/35/25 25/37/26 88/38/27
f 55/13/10 2/1/1 9/30/20
f 55/13/10 9/30/20 66/39/25
f 10/40/24 12/41/23 8/42/17
f 10/40/24 8/42/17 4/43/14
f 4/17/14 59/16/13 68/44/28
f 4/17/14 68/44/28 10/45/24
f 15/46/9 16/47/29 20/48/30
f 15/46/9 20/48/30 19/49/31
f 3/25/15 7/28/16 16/50/29
f 3/25/15 16/50/29 14/51/18
f 1/10/2 56/52/11 72/53/32
f 1/10/2 72/53/32 13/11/8
f 19/54/31 20/55/30 18/56/33
f 19/54/31 18/56/33 17/57/34
f 19/49/31 17/58/34 5/59/3
f 19/49/31 5/59/3 15/46/9
f 17/58/34 18/60/33 7/61/16
f 17/58/34 7/61/16 5/59/3
f 16/47/29 7/61/16 18/60/33
f 16/47/29 18/60/33 20/48/30
f 13/11/8 72/53/32 85/62/35
f 13/11/8 85/62/35 24/63/36
f 22/64/37 21/65/38 16/66/29
f 22/64/37 16/66/29 15/67/9
f 24/63/36 22/68/37 15/12/9
f 24/63/36 15/12/9 13/11/8
f 32/69/39 30/70/40 22/71/37
f 32/69/39 22/71/37 24/72/36
f 74/24/19 14/23/18 23/73/41
f 74/24/19 23/73/41 83/74/42
f 14/75/18 16/66/29 21/65/38
f 14/75/18 21/65/38 23/76/41
f 26/77/21 90/78/43 88/38/27
f 26/77/21 88/38/27 25/37/26
f 26/77/21 25/37/26 27/79/44
f 26/77/21 27/79/44 28/80/22
f 27/79/44 25/37/26 9/36/20
f 27/79/44 9/36/20 11/81/7
f 10/34/24 68/82/28 90/83/43
f 10/34/24 90/83/43 26/31/21
f 28/80/22 27/79/44 11/81/7
f 28/80/22 11/81/7 12/84/23
f 30/85/40 32/86/39 31/87/45
f 30/85/40 31/87/45 29/88/46
f 95/89/47 31/87/45 32/86/39
f 95/89/47 32/86/39 97/90/48
f 83/74/42 23/73/41 31/91/45
f 83/74/42 31/91/45 95/92/47
f 23/93/41 21/94/38 40/95/49
f 23/93/41 40/95/49 39/96/50
f 24/72/36 85/97/35 97/98/48
f 24/72/36 97/98/48 32/69/39
f 30/99/40 29/100/46 35/101/51
f 30/99/40 35/101/51 36/102/52
f 39/96/50 37/103/53 31/104/45
f 39/96/50 31/104/45 23/93/41
f 33/105/54 35/106/51 29/107/46
f 33/105/54 29/107/46 21/108/38
f 36/109/52 34/110/55 22/111/37
f 36/109/52 22/111/37 30/112/40
f 34/113/55 33/114/54 21/115/38
f 34/113/55 21/115/38 22/116/37
f 37/103/53 38/117/56 29/118/46
f 37/103/53 29/118/46 31/104/45
f 21/94/38 29/118/46 38/117/56
f 21/94/38 38/117/56 40/95/49
f 39/119/50 40/120/49 38/121/56
f 39/119/50 38/121/56 37/122/53
f 36/102/52 35/101/51 42/123/57
f 36/102/52 42/123/57 41/124/58
f 43/125/59 44/126/60 33/114/54
f 43/125/59 33/114/54 34/113/55
f 44/127/60 42/128/57 35/106/51
f 44/127/60 35/106/51 33/105/54
f 45/129/61 47/130/62 43/131/59
f 45/129/61 43/131/59 41/132/58
f 41/132/58 43/131/59 34/110/55
f 41/132/58 34/110/55 36/109/52
f 47/133/62 45/134/61 46/135/63
f 47/133/62 46/135/63 48/136/64
f 41/124/58 42/123/57 46/137/63
f 41/124/58 46/137/63 45/138/61
f 47/133/62 48/136/64 44/126/60
f 47/133/62 44/126/60 43/125/59
f 48/139/64 46/140/63 42/128/57
f 48/139/64 42/128/57 44/127/60
f 52/141/65 51/142/6 49/143/5
f 52/141/65 49/143/5 50/144/66
f 50/145/66 49/5/5 6/8/4
f 50/145/66 6/8/4 8/146/17
f 12/147/23 11/7/7 51/6/6
f 12/147/23 51/6/6 52/148/65
f 8/146/17 12/147/23 52/148/65
f 8/146/17 52/148/65 50/145/66
f 54/1/67 62/4/68 61/3/69
f 54/1/67 61/3/69 53/2/70
f 115/5/71 62/8/68 69/7/72
f 115/5/71 69/7/72 117/6/73
f 71/11/74 53/10/70 61/9/69
f 71/11/74 61/9/69 75/12/75
f 53/2/70 56/14/11 55/13/10
f 53/2/70 55/13/10 54/1/67
f 60/15/12 57/18/76 58/17/77
f 60/15/12 58/17/77 59/16/13
f 63/19/78 61/22/69 62/21/68
f 63/19/78 62/21/68 64/20/79
f 60/15/12 74/24/19 73/23/80
f 60/15/12 73/23/80 57/18/76
f 57/25/76 63/28/78 64/27/79
f 57/25/76 64/27/79 58/26/77
f 69/29/72 62/4/68 54/1/67
f 69/29/72 54/1/67 65/30/81
f 89/31/82 67/34/83 70/33/84
f 89/31/82 70/33/84 92/32/85
f 66/35/25 88/38/27 87/37/86
f 66/35/25 87/37/86 65/36/81
f 55/13/10 66/39/25 65/30/81
f 55/13/10 65/30/81 54/1/67
f 67/40/83 58/43/77 64/42/79
f 67/40/83 64/42/79 70/41/84
f 58/17/77 67/45/83 68/44/28
f 58/17/77 68/44/28 59/16/13
f 75/46/75 79/49/87 80/48/88
f 75/46/75 80/48/88 76/47/89
f 57/25/76 73/51/80 76/50/89
f 57/25/76 76/50/89 63/28/78
f 53/10/70 71/11/74 72/53/32
f 53/10/70 72/53/32 56/52/11
f 79/54/87 77/57/90 78/56/91
f 79/54/87 78/56/91 80/55/88
f 79/49/87 75/46/75 61/59/69
f 79/49/87 61/59/69 77/58/90
f 77/58/90 61/59/69 63/61/78
f 77/58/90 63/61/78 78/60/91
f 76/47/89 80/48/88 78/60/91
f 76/47/89 78/60/91 63/61/78
f 71/11/74 86/63/92 85/62/35
f 71/11/74 85/62/35 72/53/32
f 82/64/93 75/67/75 76/66/89
f 82/64/93 76/66/89 81/65/94
f 86/63/92 71/11/74 75/12/75
f 86/63/92 75/12/75 82/68/93
f 98/69/95 86/72/92 82/71/93
f 98/69/95 82/71/93 94/70/96
f 74/24/19 83/74/42 84/73/97
f 74/24/19 84/73/97 73/23/80
f 73/75/80 84/76/97 81/65/94
f 73/75/80 81/65/94 76/66/89
f 89/77/82 87/37/86 88/38/27
f 89/77/82 88/38/27 90/78/43
f 89/77/82 92/80/85 91/79/98
f 89/77/82 91/79/98 87/37/86
f 91/79/98 69/81/72 65/36/81
f 91/79/98 65/36/81 87/37/86
f 67/34/83 89/31/82 90/83/43
f 67/34/83 90/83/43 68/82/28
f 92/80/85 70/84/84 69/81/72
f 92/80/85 69/81/72 91/79/98
f 94/85/96 93/88/99 96/87/100
f 94/85/96 96/87/100 98/86/95
f 95/89/47 97/90/48 98/86/95
f 95/89/47 98/86/95 96/87/100
f 83/74/42 95/92/47 96/91/100
f 83/74/42 96/91/100 84/73/97
f 84/93/97 105/96/101 106/95/102
f 84/93/97 106/95/102 81/94/94
f 86/72/92 98/69/95 97/98/48
f 86/72/92 97/98/48 85/97/35
f 94/99/96 102/102/103 101/101/104
f 94/99/96 101/101/104 93/100/99
f 105/96/101 84/93/97 96/104/100
f 105/96/101 96/104/100 103/103/105
f 99/105/106 81/108/94 93/107/99
f 99/105/106 93/107/99 101/106/104
f 102/109/103 94/112/96 82/111/93
f 102/109/103 82/111/93 100/110/107
f 100/113/107 82/116/93 81/115/94
f 100/113/107 81/115/94 99/114/106
f 103/103/105 96/104/100 93/118/99
f 103/103/105 93/118/99 104/117/108
f 81/94/94 106/95/102 104/117/108
f 81/94/94 104/117/108 93/118/99
f 105/119/101 103/122/105 104/121/108
f 105/119/101 104/121/108 106/120/102
f 102/102/103 107/124/109 108/123/110
f 102/102/103 108/123/110 101/101/104
f 109/125/111 100/113/107 99/114/106
f 109/125/111 99/114/106 110/126/112
f 110/127/112 99/105/106 101/106/104
f 110/127/112 101/106/104 108/128/110
f 111/129/113 107/132/109 109/131/111
f 111/129/113 109/131/111 113/130/114
f 107/132/109 102/109/103 100/110/107
f 107/132/109 100/110/107 109/131/111
f 113/133/114 114/136/115 112/135/116
f 113/133/114 112/135/116 111/134/113
f 107/124/109 111/138/113 112/137/116
f 107/124/109 112/137/116 108/123/110
f 113/133/114 109/125/111 110/126/112
f 113/133/114 110/126/112 114/136/115
f 114/139/115 110/127/112 108/128/110
f 114/139/115 108/128/110 112/140/116
f 118/141/117 116/144/118 115/143/71
f 118/141/117 115/143/71 117/142/73
f 116/145/118 64/146/79 62/8/68
f 116/145/118 62/8/68 115/5/71
f 70/147/84 118/148/117 117/6/73
f 70/147/84 117/6/73 69/7/72
f 64/146/79 116/145/118 118/148/117
f 64/146/79 118/148/117 70/147/84
